/* XPM */
static const char *icon_xpm[] = {
/* columns rows colors chars-per-pixel */
"32 32 22 1",
"  c black",
". c #3A0000",
"X c #00003A",
"o c #660000",
"O c #000066",
"+ c #903A00",
"@ c #B66600",
"# c #DB903A",
"$ c #FFB666",
"% c #003A90",
"& c #0066B6",
"* c #3A90DB",
"= c #66B6FF",
"- c #FFDB90",
"; c #FFDBB6",
": c #FFFFB6",
"> c #90DBFF",
", c #B6DBFF",
"< c #B6FFFF",
"1 c #FFFFDB",
"2 c #DBFFFF",
"3 c gray100",
/* pixels */
"                                ",
"                                ",
"                                ",
"                                ",
"                                ",
"                                ",
"                                ",
"                                ",
"  =33$      =33$O<333333333$    ",
"  &33:o    O<33@O<333333333$    ",
"  O<33@    &33:oO<333333331+    ",
"   =33$    *33#        =33@     ",
"   &33:o  X>31+       *33$      ",
"   X>33@  %23-.      &33-.      ",
"    *33$  *33#      %23:o       ",
"    %23:oX>31+     O<31+        ",
"    X>33@%23$     X>33#         ",
"     *33#*33@     =33$          ",
"     %23;,3:o    &33-.          ",
"      =3333$    %2333333333$    ",
"      &3333@    =3333333333$    ",
"      O<33-.    =3333333333$    ",
"                                ",
"                                ",
"                                ",
"                                ",
"                                ",
"                                ",
"                                ",
"                                ",
"                                ",
"                                "
};
